<?xml version="1.0" encoding="UTF-8"?>
<svg version="1.1" xmlns="http://www.w3.org/2000/svg" width="2151" height="2274">
<path d="M0 0 C8.19902244 7.47835577 15.5674562 15.32183604 22.37109375 24.09375 C22.7897168 24.62532715 23.20833984 25.1569043 23.63964844 25.70458984 C63.02969611 76.00062922 74.71647883 140.38706898 67.7734375 202.82568359 C57.75382231 284.21073758 20.84017269 359.54586493 -31.62890625 422.09375 C-33.12995934 423.94706423 -34.62994025 425.80124732 -36.12890625 427.65625 C-39.80101591 432.14722732 -43.61436687 436.48058347 -47.51953125 440.76953125 C-49.37517282 442.81417335 -51.19647001 444.88159149 -53.00390625 446.96875 C-62.18212325 457.46762351 -71.81847201 467.44337228 -81.69116211 477.28637695 C-83.82717982 479.41699634 -85.95774743 481.55296223 -88.08789062 483.68945312 C-89.46973132 485.0706335 -90.85188192 486.45150389 -92.234375 487.83203125 C-92.85853806 488.45821854 -93.48270111 489.08440582 -94.1257782 489.72956848 C-97.90666852 493.49074518 -101.80334267 497.06603014 -105.84399414 500.54695129 C-108.43562682 502.79285128 -110.93199126 505.13130891 -113.44140625 507.46875 C-118.08582222 511.7592987 -122.86649424 515.82247414 -127.79296875 519.7890625 C-130.33129739 521.85189156 -132.82749613 523.95246397 -135.31347656 526.07739258 C-141.96613614 531.76328144 -148.77248006 537.21727805 -155.68652344 542.58105469 C-157.77066372 544.20414835 -159.84471541 545.83958896 -161.91796875 547.4765625 C-171.27150824 554.84061575 -180.79293934 561.87079065 -190.57275391 568.65673828 C-192.54495029 570.03507454 -194.50140936 571.43269947 -196.453125 572.83984375 C-250.14689475 611.45550422 -308.81149896 645.33885876 -370.62890625 669.09375 C-372.38074219 669.7736499 -372.38074219 669.7736499 -374.16796875 670.46728516 C-428.46528694 691.42247316 -485.34459949 703.60819203 -543.25390625 708.78125 C-543.93144958 708.84218842 -544.60899292 708.90312683 -545.30706787 708.96591187 C-565.80581538 710.78319445 -586.24112511 711.29991772 -606.81640625 711.28125 C-608.66848694 711.28034363 -608.66848694 711.28034363 -610.5579834 711.27941895 C-629.99704224 711.2536602 -649.26278036 710.87412096 -668.62890625 709.09375 C-669.30993408 709.0329425 -669.99096191 708.97213501 -670.69262695 708.90948486 C-719.51013891 704.54046612 -768.00146264 695.28178232 -814.62890625 680.09375 C-815.2696106 679.88598938 -815.91031494 679.67822876 -816.57043457 679.46417236 C-868.56085415 662.58194044 -916.97887715 638.42899815 -963.62890625 610.09375 C-964.59473633 609.50819336 -965.56056641 608.92263672 -966.55566406 608.31933594 C-978.78885329 600.88213719 -990.78923198 593.14143589 -1002.62890625 585.09375 C-1003.30228027 584.63790527 -1003.9756543 584.18206055 -1004.66943359 583.71240234 C-1021.0573147 572.60732514 -1037.00027438 560.97678194 -1052.55078125 548.7265625 C-1054.48714086 547.20513709 -1056.43105605 545.69417045 -1058.37890625 544.1875 C-1064.93711873 539.10201842 -1071.32456032 533.86320385 -1077.59521484 528.42651367 C-1081.00880219 525.4682309 -1084.47022565 522.59657401 -1088.00390625 519.78125 C-1093.51869055 515.3122322 -1098.65713334 510.47492867 -1103.79638672 505.5847168 C-1104.43592285 504.97668213 -1105.07545898 504.36864746 -1105.734375 503.7421875 C-1106.29278076 503.20770996 -1106.85118652 502.67323242 -1107.42651367 502.12255859 C-1109.37340883 500.32911011 -1111.35656307 498.5984503 -1113.36035156 496.86938477 C-1117.68900371 493.09297267 -1121.76543328 489.10172226 -1125.8203125 485.03515625 C-1126.94372292 483.91318092 -1126.94372292 483.91318092 -1128.08982849 482.76853943 C-1129.6616185 481.19742536 -1131.23216474 479.62506608 -1132.80151367 478.05151367 C-1135.18491929 475.66275154 -1137.57361693 473.27937554 -1139.96289062 470.89648438 C-1141.49901862 469.3596955 -1143.03483634 467.8225964 -1144.5703125 466.28515625 C-1145.27466934 465.58282364 -1145.97902618 464.88049103 -1146.70472717 464.15687561 C-1150.67050933 460.17255664 -1154.4646004 456.09081469 -1158.13148499 451.82928467 C-1160.20171323 449.42985775 -1162.35362549 447.10891082 -1164.50390625 444.78125 C-1168.54292778 440.34743689 -1172.40397503 435.81320416 -1176.16796875 431.14453125 C-1177.96170861 428.92086326 -1179.76763008 426.71176522 -1181.58984375 424.51171875 C-1246.93296398 345.37460958 -1291.0447208 248.48254442 -1285.16796875 141.0859375 C-1280.14181985 91.84240267 -1258.69743721 45.76607771 -1224.62890625 10.09375 C-1223.75621094 9.16820312 -1222.88351562 8.24265625 -1221.984375 7.2890625 C-1206.70697697 -8.50280135 -1188.50556501 -20.69946731 -1168.62890625 -29.90625 C-1166.93701172 -30.70675781 -1166.93701172 -30.70675781 -1165.2109375 -31.5234375 C-1150.12198302 -38.35149896 -1134.04063435 -42.76028267 -1117.62890625 -44.90625 C-1116.91605469 -45.0005127 -1116.20320313 -45.09477539 -1115.46875 -45.19189453 C-1107.62669807 -46.10364724 -1099.76388087 -46.14964504 -1091.87890625 -46.15625 C-1091.15169373 -46.15692474 -1090.4244812 -46.15759949 -1089.67523193 -46.15829468 C-1041.87241216 -46.0881872 -997.66856595 -28.35213847 -963.10839844 4.68164062 C-962.12725785 5.6180956 -961.14095378 6.54917231 -960.14941406 7.47460938 C-946.59651484 20.14304121 -935.92895072 35.10211343 -926.62890625 51.09375 C-926.2637793 51.71024414 -925.89865234 52.32673828 -925.52246094 52.96191406 C-919.25140493 63.66489126 -914.72217296 75.02644324 -910.20263672 86.54492188 C-905.82993472 97.68453631 -901.10129222 108.63469663 -896.20703125 119.5546875 C-894.42531031 123.55032901 -892.66699961 127.55587888 -890.91015625 131.5625 C-878.88763258 158.93673585 -866.49954643 186.12521447 -851.62890625 212.09375 C-851.04061035 213.1235498 -850.45231445 214.15334961 -849.84619141 215.21435547 C-833.10534396 244.35583066 -814.54380568 272.48040242 -793.06005859 298.35839844 C-791.79252462 299.89535365 -790.54691418 301.45033166 -789.3046875 303.0078125 C-783.37560808 310.43834086 -776.9149788 317.31039921 -770.39111328 324.21386719 C-768.69195462 326.02649142 -767.01380498 327.85587562 -765.34375 329.6953125 C-760.70581459 334.80282983 -756.10318338 339.80724023 -750.796875 344.23828125 C-748.51700842 346.18951841 -746.33648534 348.23229145 -744.15405273 350.29125977 C-737.51090914 356.54125978 -730.57740375 362.25417269 -723.33007812 367.78662109 C-721.70341203 369.03650202 -720.09372924 370.30506238 -718.48828125 371.58203125 C-704.99477425 382.21071076 -690.54197846 391.58431187 -675.62890625 400.09375 C-674.79214355 400.57424805 -673.95538086 401.05474609 -673.09326172 401.54980469 C-657.11098625 410.66063833 -640.68535426 418.22021642 -623.62890625 425.09375 C-622.75959473 425.44663086 -621.8902832 425.79951172 -620.99462891 426.16308594 C-544.95500948 456.67888309 -456.81422941 459.05521604 -381.05273438 426.8762207 C-372.32329864 423.06400798 -363.86899226 418.87201256 -355.62890625 414.09375 C-354.65679199 413.53034912 -354.65679199 413.53034912 -353.66503906 412.95556641 C-337.36189458 403.37858263 -322.29840729 392.14093466 -308.62890625 379.09375 C-307.30292092 377.93942131 -305.9702458 376.79270062 -304.62890625 375.65625 C-296.3434226 368.46050637 -288.69833943 360.47629603 -281.62890625 352.09375 C-280.85675781 351.21074219 -280.08460938 350.32773438 -279.2890625 349.41796875 C-264.40583736 332.29946224 -250.99435808 313.72918508 -239.62890625 294.09375 C-245.83512258 300.95567392 -245.83512258 300.95567392 -251.94140625 307.90625 C-260.83266431 318.10321729 -269.9634767 328.21527997 -280.23828125 337.0390625 C-282.03261964 338.5812553 -283.81132834 340.14166375 -285.58203125 341.7109375 C-330.60061425 381.38810464 -386.13567007 406.17008231 -446.62890625 407.09375 C-447.45237549 407.10696289 -448.27584473 407.12017578 -449.12426758 407.13378906 C-525.36048636 407.7652586 -596.72543234 375.36770786 -653.62890625 326.09375 C-655.06606649 324.88501258 -656.50349575 323.67659482 -657.94140625 322.46875 C-658.82828125 321.685 -659.71515625 320.90125 -660.62890625 320.09375 C-660.62890625 319.76375 -660.62890625 319.43375 -660.62890625 319.09375 C-660.04963379 319.12404297 -659.47036133 319.15433594 -658.87353516 319.18554688 C-565.70973098 323.88257792 -475.037197 308.13884659 -396.65722656 240.96533203 C-386.56117982 231.64945645 -377.06124802 221.94192691 -368.62890625 211.09375 C-367.75212778 210.03750805 -366.87169047 208.98429623 -365.98828125 207.93359375 C-351.93587496 191.073576 -340.15303392 172.3224492 -329.62890625 153.09375 C-329.1606543 152.24619141 -328.69240234 151.39863281 -328.20996094 150.52539062 C-316.63117828 129.43794789 -307.26580966 107.42359988 -298.87890625 84.90625 C-287.39616117 54.12363665 -271.50830242 27.77010627 -248.62890625 4.09375 C-247.62150391 3.00900391 -247.62150391 3.00900391 -246.59375 1.90234375 C-222.38366956 -23.54137136 -188.66848376 -39.28940905 -154.62890625 -45.90625 C-153.36820313 -46.15246094 -152.1075 -46.39867187 -150.80859375 -46.65234375 C-95.74284819 -55.2749497 -40.99782925 -36.77437929 0 0 Z M-238.62890625 291.09375 C-237.62890625 293.09375 -237.62890625 293.09375 -237.62890625 293.09375 Z " fill="#2C80C2" transform="translate(1649.62890625,1070.90625)"/>
<path d="M0 0 C2.54957639 2.24634039 5.02956037 4.54960225 7.49609375 6.88671875 C8.39328125 7.71945312 9.29046875 8.5521875 10.21484375 9.41015625 C33.38520956 31.6042426 47.91440676 63.87994454 48.734375 95.96484375 C48.942234 111.33042076 48.73776487 125.98684689 44.49609375 140.88671875 C44.3141748 141.55364746 44.13225586 142.22057617 43.94482422 142.90771484 C38.78049116 161.42824082 28.87601371 178.29690416 16.49609375 192.88671875 C15.75746094 193.77230469 15.01882813 194.65789062 14.2578125 195.5703125 C-6.01655307 218.96381123 -38.41890459 236.54098197 -69.50390625 238.88671875 C-87.40461295 239.77215585 -105.14610415 239.86655023 -122.50390625 234.88671875 C-123.16938477 234.7047998 -123.83486328 234.52288086 -124.52050781 234.33544922 C-143.04331447 229.17176694 -159.9124063 219.26806879 -174.50390625 206.88671875 C-175.38949219 206.14808594 -176.27507812 205.40945313 -177.1875 204.6484375 C-200.77212643 184.20842793 -216.88456645 153.29583252 -220.33618164 122.26977539 C-221.49460597 105.81070713 -221.97586824 87.86873057 -217.50390625 71.88671875 C-217.28347656 71.08685547 -217.06304688 70.28699219 -216.8359375 69.46289062 C-210.42723457 46.96461342 -199.59933069 27.87342076 -183.50390625 10.88671875 C-182.67117188 9.98953125 -181.8384375 9.09234375 -180.98046875 8.16796875 C-163.92446039 -9.63830391 -142.10976115 -20.60788046 -118.50390625 -27.11328125 C-117.81748047 -27.30535156 -117.13105469 -27.49742187 -116.42382812 -27.6953125 C-76.82605249 -38.16414925 -30.90331171 -26.08220224 0 0 Z " fill="#2C80C1" transform="translate(1695.50390625,657.11328125)"/>
<path d="M0 0 C2.54957639 2.24634039 5.02956037 4.54960225 7.49609375 6.88671875 C8.39328125 7.71945312 9.29046875 8.5521875 10.21484375 9.41015625 C27.83966684 26.29236039 39.54125697 48.3246794 45.49609375 71.88671875 C45.83382813 73.15386719 46.1715625 74.42101562 46.51953125 75.7265625 C51.09707107 96.40948323 50.27981222 120.5700413 44.49609375 140.88671875 C44.3141748 141.55364746 44.13225586 142.22057617 43.94482422 142.90771484 C38.78049116 161.42824082 28.87601371 178.29690416 16.49609375 192.88671875 C15.75746094 193.77230469 15.01882813 194.65789062 14.2578125 195.5703125 C-6.01655307 218.96381123 -38.41890459 236.54098197 -69.50390625 238.88671875 C-87.40461295 239.77215585 -105.14610415 239.86655023 -122.50390625 234.88671875 C-123.16938477 234.7047998 -123.83486328 234.52288086 -124.52050781 234.33544922 C-143.04331447 229.17176694 -159.9124063 219.26806879 -174.50390625 206.88671875 C-175.38949219 206.14808594 -176.27507812 205.40945313 -177.1875 204.6484375 C-201.52290192 183.55775584 -216.55951898 152.63195879 -220.50390625 120.88671875 C-220.74227877 115.76459894 -220.74959617 110.63881954 -220.75390625 105.51171875 C-220.75458099 104.79363037 -220.75525574 104.07554199 -220.75595093 103.33569336 C-220.73984219 92.55518714 -220.26915555 82.3631917 -217.50390625 71.88671875 C-217.18679688 70.6234375 -216.8696875 69.36015625 -216.54296875 68.05859375 C-210.62275032 46.20730781 -199.09370223 27.13044912 -183.50390625 10.88671875 C-182.67375 9.99339844 -181.84359375 9.10007812 -180.98828125 8.1796875 C-163.9425747 -9.63855838 -142.10854929 -20.60821443 -118.50390625 -27.11328125 C-117.81748047 -27.30535156 -117.13105469 -27.49742187 -116.42382812 -27.6953125 C-76.82605249 -38.16414925 -30.90331171 -26.08220224 0 0 Z " fill="#2C80C1" transform="translate(564.50390625,657.11328125)"/>
</svg>
